# xmcd CD database file
#
# Track frame offsets:
#	150
#	20911
#	49323
#	61688
#	86607
#	121768
#	147892
#
# Disc length: 3004 seconds
#
# Revision: 0
# Processed by: cddbd v1.5.2PL0 Copyright (c) Steve Scherf et al.
# Submitted via: CDex 1.70beta2
#
DISCID=5a0bba07
DTITLE=Magnus fra Gaarden - Magnus fra Gaarden
DYEAR=2009
DGENRE=Jazz
TTITLE0=Nervemedicin
TTITLE1=Wild Horses
TTITLE2=Starrk Lakrids
TTITLE3=Balkanormen
TTITLE4=Johnny Boy
TTITLE5=Perestrojka Zagliebe
TTITLE6=Aebler og Kandis
EXTD=YEAR: 2009
EXTT0=
EXTT1=
EXTT2=
EXTT3=
EXTT4=
EXTT5=
EXTT6=
PLAYORDER=
